HIERARCHY
ROOT SpineBase
{
  OFFSET 0.000000 0.000000 0.000000
  CHANNELS 6 Xposition Yposition Zposition Zrotation Xrotation Yrotation
  JOINT SpineMid
  {
    OFFSET -0.000000 34.912420 0.000000
    CHANNELS 3 Zrotation Xrotation Yrotation
    JOINT SpineShoulder
    {
      OFFSET -0.981661 26.063587 -0.892506
      CHANNELS 3 Zrotation Xrotation Yrotation
      JOINT Neck
      {
        OFFSET -0.341632 8.541577 -0.696079
        CHANNELS 3 Zrotation Xrotation Yrotation
        JOINT Head
        {
          OFFSET -4.105744 11.547505 5.164085
          CHANNELS 3 Zrotation Xrotation Yrotation
          End Site
          {
            OFFSET 0 0 0
          }
        }
      }
      JOINT ShoulderLeft
      {
        OFFSET -11.158116 -7.915770 -18.401700
        CHANNELS 3 Zrotation Xrotation Yrotation
        JOINT ElbowLeft
        {
          OFFSET -0.241095 -22.736591 -6.116540
          CHANNELS 3 Zrotation Xrotation Yrotation
          JOINT WristLeft
          {
            OFFSET -2.311407 -14.077457 17.097724
            CHANNELS 3 Zrotation Xrotation Yrotation
            JOINT HandLeft
            {
              OFFSET 3.902426 -2.500110 3.918327
              CHANNELS 3 Zrotation Xrotation Yrotation
              JOINT HandTipLeft
              {
                OFFSET -1.124308 -4.193860 2.385182
                CHANNELS 3 Zrotation Xrotation Yrotation
                End Site
                {
                  OFFSET 0 0 0
                }
              }
              JOINT ThumbLeft
              {
                OFFSET 0.536961 2.970637 -2.494362
                CHANNELS 3 Zrotation Xrotation Yrotation
                End Site
                {
                  OFFSET 0 0 0
                }
              }
            }
          }
        }
      }
      JOINT ShoulderRight
      {
        OFFSET 2.749474 -6.383327 -15.109396
        CHANNELS 3 Zrotation Xrotation Yrotation
        JOINT ElbowRight
        {
          OFFSET -4.646630 -27.073277 -3.783755
          CHANNELS 3 Zrotation Xrotation Yrotation
          JOINT WristRight
          {
            OFFSET -5.605832 -20.011007 4.372524
            CHANNELS 3 Zrotation Xrotation Yrotation
            JOINT HandRight
            {
              OFFSET 0.705823 -6.152974 3.550316
              CHANNELS 3 Zrotation Xrotation Yrotation
              JOINT HandTipRight
              {
                OFFSET -1.565147 -7.960663 2.597897
                CHANNELS 3 Zrotation Xrotation Yrotation
                End Site
                {
                  OFFSET 0 0 0
                }
              }
              JOINT ThumbRight
              {
                OFFSET -4.897950 -0.370479 -2.367613
                CHANNELS 3 Zrotation Xrotation Yrotation
                End Site
                {
                  OFFSET 0 0 0
                }
              }
            }
          }
        }
      }
    }
  }
  JOINT HipLeft
  {
    OFFSET -6.709136 0.081946 0.780696
    CHANNELS 3 Zrotation Xrotation Yrotation
    JOINT KneeLeft
    {
      OFFSET 2.491760 -34.191484 20.396412
      CHANNELS 3 Zrotation Xrotation Yrotation
      JOINT AnkleLeft
      {
        OFFSET 0.388055 -29.461739 5.707515
        CHANNELS 3 Zrotation Xrotation Yrotation
        JOINT FootLeft
        {
          OFFSET -7.774245 -3.311385 -0.168391
          CHANNELS 3 Zrotation Xrotation Yrotation
          End Site
          {
            OFFSET 0 0 0
          }
        }
      }
    }
  }
  JOINT HipRight
  {
    OFFSET 6.268833 0.384709 -8.529253
    CHANNELS 3 Zrotation Xrotation Yrotation
    JOINT KneeRight
    {
      OFFSET -5.010144 -29.744845 4.232861
      CHANNELS 3 Zrotation Xrotation Yrotation
      JOINT AnkleRight
      {
        OFFSET 7.718589 -34.459152 6.336900
        CHANNELS 3 Zrotation Xrotation Yrotation
        JOINT FootRight
        {
          OFFSET -3.533700 -8.100663 -4.779467
          CHANNELS 3 Zrotation Xrotation Yrotation
          End Site
          {
            OFFSET 0 0 0
          }
        }
      }
    }
  }
}
MOTION
Frames: 13
Frame Time: 0.033333
13.184384 72.742412 345.663367 0.000000 0.000000 35.654356 -0.000000 0.000000 -35.654356 -0.000000 0.000000 0.000000 -0.000000 0.000000 0.000000 0.000000 0.000000 0.000000 -0.000000 0.000000 0.000000 -0.000000 0.000000 0.000000 -0.000000 0.000000 0.000000 -0.000000 0.000000 0.000000 0.000000 0.000000 0.000000 0.000000 0.000000 0.000000 -0.000000 0.000000 0.000000 -0.000000 0.000000 0.000000 -0.000000 0.000000 0.000000 -0.000000 0.000000 0.000000 0.000000 0.000000 0.000000 0.000000 0.000000 0.000000 -0.000000 0.000000 -35.654356 -0.000000 0.000000 0.000000 -0.000000 0.000000 0.000000 0.000000 0.000000 0.000000 -0.000000 0.000000 -35.654356 -0.000000 0.000000 0.000000 -0.000000 0.000000 0.000000 0.000000 0.000000 0.000000
13.005965 72.590727 345.089139 0.097639 0.402069 35.489735 -0.312927 -0.270685 -35.490817 -0.000000 0.000000 0.000000 -1.211578 0.017067 0.550118 0.000000 0.000000 0.000000 -0.000000 0.000000 0.000000 -0.000000 0.000000 0.000000 9.769373 -10.694449 -0.372341 -9.528859 8.258803 2.940697 0.000000 0.000000 0.000000 0.000000 0.000000 0.000000 -0.000000 0.000000 0.000000 1.293486 1.208836 -0.070036 -4.924722 3.465382 -1.486220 1.279089 -6.143064 0.996339 0.000000 0.000000 0.000000 0.000000 0.000000 0.000000 -0.522321 0.677693 -35.874298 2.508913 -1.954480 0.754230 14.044243 11.918199 -39.500692 0.000000 0.000000 0.000000 -0.893957 -1.373473 -35.267585 -0.162325 1.235845 -0.229817 -0.000000 0.000000 0.000000 0.000000 0.000000 0.000000
12.943214 72.467282 344.704007 0.287732 0.599145 35.297033 -0.581040 -0.322734 -35.300174 -0.000000 0.000000 0.000000 -2.178364 0.022035 0.989120 0.000000 0.000000 0.000000 -0.000000 0.000000 0.000000 -0.000000 0.000000 0.000000 16.717490 -17.873662 0.615497 -15.968866 11.740628 6.302654 0.000000 0.000000 0.000000 0.000000 0.000000 0.000000 -0.000000 0.000000 0.000000 2.093143 1.946832 -0.124687 -8.011162 5.534796 -2.429509 1.639913 -9.924800 1.343065 0.000000 0.000000 0.000000 0.000000 0.000000 0.000000 -0.929303 1.133002 -35.900702 3.888553 -2.892629 1.206918 25.971784 12.285435 -65.704093 0.000000 0.000000 0.000000 -1.719102 -2.051242 -34.966197 -0.057697 2.068560 -0.356514 -0.000000 0.000000 0.000000 0.000000 0.000000 0.000000
12.996133 72.372079 344.507972 0.569902 0.593685 35.077332 -1.267841 0.606717 -35.093942 0.059988 0.097059 -0.028147 -2.149575 -0.439242 1.342540 0.000000 0.000000 0.000000 0.756689 -0.457994 0.046345 -0.000000 0.000000 0.000000 20.780761 -21.584880 1.791624 -19.106434 10.698330 8.905389 0.000000 0.000000 0.000000 0.000000 0.000000 0.000000 0.756689 -0.457994 0.046345 2.409730 2.226714 -0.145560 -9.696189 6.628135 -3.024742 1.478608 -11.707044 1.326080 0.000000 0.000000 0.000000 0.000000 0.000000 0.000000 -1.226180 1.367718 -35.735025 4.141230 -2.866607 1.298778 31.635539 9.906778 -76.547367 0.000000 0.000000 0.000000 -2.485020 -2.033484 -34.735795 0.310831 2.496444 -0.384467 -0.000000 0.000000 0.000000 0.000000 0.000000 0.000000
13.164721 72.305116 344.501032 0.944240 0.387046 34.833946 -1.504865 0.888779 -34.847952 0.038111 0.180524 -0.025541 -2.639017 -0.422344 1.564700 0.000000 0.000000 0.000000 0.760794 -0.436903 0.047399 -0.000000 0.000000 0.000000 21.971368 -22.228785 2.541257 -20.001293 7.399463 9.728321 0.000000 0.000000 0.000000 0.000000 0.000000 0.000000 0.760794 -0.436903 0.047399 2.248575 2.054648 -0.125766 -10.198242 6.937628 -3.363165 1.067505 -11.630860 1.172041 0.000000 0.000000 0.000000 0.000000 0.000000 0.000000 -1.412933 1.382388 -35.379266 3.269402 -1.884568 1.025295 35.127632 7.450668 -80.051199 0.000000 0.000000 0.000000 -3.200673 -1.319913 -34.564496 0.941981 2.519740 -0.312562 -0.000000 0.000000 0.000000 0.000000 0.000000 0.000000
13.448977 72.266395 344.683190 1.411275 -0.020438 34.572413 -1.150541 0.817595 -34.563952 -0.000000 0.000000 0.000000 -3.662232 0.013013 1.662056 0.000000 0.000000 0.000000 -0.000000 0.000000 0.000000 -0.000000 0.000000 0.000000 20.059547 -19.719302 2.711069 -19.776084 5.956399 7.357259 0.000000 0.000000 0.000000 0.000000 0.000000 0.000000 -0.000000 0.000000 0.000000 1.609071 1.429012 -0.069255 -9.580445 6.462701 -3.491341 0.530560 -9.682314 1.012696 0.000000 0.000000 0.000000 0.000000 0.000000 0.000000 -1.150541 0.817595 -34.563952 0.797083 0.189846 0.155634 38.222933 4.965298 -79.179526 0.000000 0.000000 0.000000 -3.874856 0.090599 -34.442407 1.836029 2.140190 -0.134247 -0.000000 0.000000 0.000000 0.000000 0.000000 0.000000
14.147566 72.195921 345.020148 2.275628 -0.632890 34.359866 -1.522086 1.806334 -34.323300 -0.000000 0.000000 0.000000 -3.985256 0.218826 1.889953 0.000000 0.000000 0.000000 -0.000000 0.000000 0.000000 -0.000000 0.000000 0.000000 12.696414 -7.978293 6.537178 -6.726862 7.733238 -2.206715 0.000000 0.000000 0.000000 0.000000 0.000000 0.000000 -0.328642 1.193380 -0.155173 1.183792 -0.342370 0.122492 -4.839909 6.251901 -1.304505 -2.427526 -4.994564 -1.438857 0.000000 0.000000 0.000000 0.000000 0.000000 0.000000 -1.505142 -0.452084 -33.697219 -5.216874 5.771179 -1.066655 45.088143 0.577981 -69.554225 0.000000 0.000000 0.000000 -5.241739 2.632299 -34.443393 3.531202 1.424862 0.220266 -0.000000 0.000000 0.000000 0.000000 0.000000 0.000000
15.041022 72.252651 345.592264 3.185561 -1.441565 34.380722 -1.720058 2.164156 -34.302520 -0.544393 0.624759 0.007860 -3.386841 0.186573 1.602475 0.000000 0.000000 0.000000 -1.605536 -0.124577 0.431581 1.606432 0.112433 -0.434903 1.664159 1.369441 4.704942 1.446011 5.111433 -5.106661 0.000000 0.000000 0.000000 0.000000 0.000000 0.000000 -0.447637 1.962519 -0.265819 0.939984 -1.216694 0.193093 -4.121577 1.232982 -1.781310 -3.339859 1.265337 -0.999109 0.000000 0.000000 0.000000 0.000000 0.000000 0.000000 -1.759388 -0.656462 -33.274846 -9.191556 9.602006 -1.500272 44.437388 0.082354 -51.796601 0.000000 0.000000 0.000000 -6.676728 5.988319 -34.677684 6.502029 0.232360 0.875484 -0.811100 0.088171 -0.129010 0.000000 0.000000 0.000000
15.403109 72.341737 346.120752 3.721667 -2.171071 33.832407 -1.672671 2.366780 -33.717692 -0.350736 0.662054 0.042811 -4.027214 0.417944 1.494528 0.000000 0.000000 0.000000 -1.940907 0.413043 0.321596 1.277504 0.051734 -0.344808 -10.240985 11.483089 4.159415 6.793669 -7.572252 -5.472162 0.000000 0.000000 0.000000 0.000000 0.000000 0.000000 -1.126739 3.074280 -0.398531 -1.565522 -4.533929 0.352968 -4.803822 -6.856265 -5.198138 0.209156 12.881400 2.828323 0.000000 0.000000 0.000000 0.000000 0.000000 0.000000 -1.155426 -0.537060 -32.162469 -12.342667 11.230165 -2.031080 41.720197 -0.492290 -34.632368 0.000000 0.000000 0.000000 -7.142556 8.501461 -34.270832 8.082544 -1.015210 1.377179 -1.150475 0.199095 -0.165405 0.000000 0.000000 0.000000
15.164738 72.430968 347.064144 3.748863 -3.348652 33.250897 -1.422324 2.590039 -33.113170 -0.196918 0.838092 0.063143 -4.873691 0.213270 1.482423 0.000000 0.000000 0.000000 -0.941329 1.121152 -0.022685 -0.000000 0.000000 0.000000 -24.248350 22.473374 5.218538 18.912137 -15.175645 -1.869517 0.000000 0.000000 0.000000 0.000000 0.000000 0.000000 -1.453510 4.412148 -0.488968 -5.985752 -9.170478 0.011375 -5.648709 -20.355692 -10.950535 0.798360 26.388113 8.073025 0.000000 0.000000 0.000000 0.000000 0.000000 0.000000 0.226350 0.815580 -31.294355 -12.811264 10.851202 -2.449373 33.134710 -1.627879 -18.847717 0.000000 0.000000 0.000000 -5.434459 11.193213 -34.003362 8.510954 -3.318230 1.941358 -0.896711 -0.181539 -0.288274 0.000000 0.000000 0.000000
14.401148 72.602299 347.954030 3.086987 -4.453331 33.055353 -1.097441 2.869417 -32.939020 0.248710 1.250266 0.077478 -2.037771 0.328131 0.168317 0.000000 0.000000 0.000000 0.327240 1.317231 -0.347098 -1.177637 0.068786 0.316707 -35.477087 30.093405 6.142417 29.825852 -31.163666 6.315695 0.000000 0.000000 0.000000 0.000000 0.000000 0.000000 -1.879929 5.091442 -0.433605 -11.908451 -18.807813 -0.591441 -7.135274 -17.400753 -16.726407 2.422172 30.381954 12.265271 0.000000 0.000000 0.000000 0.000000 0.000000 0.000000 2.739686 2.914382 -30.925801 -11.626035 8.080830 -3.084886 21.450346 -2.525981 -10.025715 0.000000 0.000000 0.000000 -2.325593 12.655926 -34.229998 7.870934 -5.321770 2.283618 -0.934641 -0.497262 -0.333739 0.000000 0.000000 0.000000
13.308482 72.653089 348.997881 2.282882 -5.642644 33.500756 -0.577239 2.728611 -33.444356 0.430206 1.369328 0.072641 1.075883 1.204189 -1.206097 0.000000 0.000000 0.000000 5.206973 2.430030 -1.795600 -5.922747 -0.288740 1.582971 -46.440402 36.611351 8.548323 38.326051 -40.959417 10.601212 0.000000 0.000000 0.000000 0.000000 0.000000 0.000000 -2.906615 6.721045 -0.231328 -19.078747 -28.765035 -3.167476 -5.599569 -10.379175 -20.067195 3.859132 21.759407 15.125744 0.000000 0.000000 0.000000 0.000000 0.000000 0.000000 4.443600 5.536426 -31.921463 -6.815571 4.869193 -2.482255 10.430025 -3.169956 -6.234478 0.000000 0.000000 0.000000 1.495266 13.752863 -35.204936 6.837939 -7.387027 2.504041 -1.222489 -0.248238 -0.466131 0.000000 0.000000 0.000000
11.988906 72.350678 350.126606 1.433181 -6.802509 30.513996 -0.401438 2.308071 -30.544835 0.501998 1.374588 0.053264 5.163469 2.947420 -2.899165 0.000000 0.000000 0.000000 15.881381 5.680287 -5.611206 -16.036378 -3.373498 3.926603 -54.473674 40.969974 9.202766 45.127496 -44.700544 14.644433 0.000000 0.000000 0.000000 0.000000 0.000000 0.000000 -4.863602 7.256372 0.537181 -26.520588 -34.887162 -7.498348 -0.036041 -11.265978 -23.334614 -1.166937 13.575684 18.040855 0.000000 0.000000 0.000000 0.000000 0.000000 0.000000 4.761215 8.226830 -29.884227 0.866994 2.037718 -0.535161 0.609563 -0.879801 -10.187780 0.000000 0.000000 0.000000 5.211726 16.213451 -33.160766 6.101941 -11.159398 3.065983 -2.140049 0.824614 -0.460840 0.000000 0.000000 0.000000
